<svg id="visual" viewBox="0 0 900 450" width="900" height="450" xmlns="http://www.w3.org/2000/svg" xmlns:xlink="http://www.w3.org/1999/xlink" version="1.1"><rect x="0" y="0" width="900" height="450" fill="#001220"></rect><defs><linearGradient id="grad1_0" x1="50%" y1="100%" x2="100%" y2="0%"><stop offset="10%" stop-color="#fbae3c" stop-opacity="1"></stop><stop offset="90%" stop-color="#fbae3c" stop-opacity="1"></stop></linearGradient></defs><defs><linearGradient id="grad1_1" x1="50%" y1="100%" x2="100%" y2="0%"><stop offset="10%" stop-color="#fbae3c" stop-opacity="1"></stop><stop offset="90%" stop-color="#f48350" stop-opacity="1"></stop></linearGradient></defs><defs><linearGradient id="grad1_2" x1="50%" y1="100%" x2="100%" y2="0%"><stop offset="10%" stop-color="#d96162" stop-opacity="1"></stop><stop offset="90%" stop-color="#f48350" stop-opacity="1"></stop></linearGradient></defs><defs><linearGradient id="grad1_3" x1="50%" y1="100%" x2="100%" y2="0%"><stop offset="10%" stop-color="#d96162" stop-opacity="1"></stop><stop offset="90%" stop-color="#af4b6d" stop-opacity="1"></stop></linearGradient></defs><defs><linearGradient id="grad1_4" x1="50%" y1="100%" x2="100%" y2="0%"><stop offset="10%" stop-color="#7c3e6b" stop-opacity="1"></stop><stop offset="90%" stop-color="#af4b6d" stop-opacity="1"></stop></linearGradient></defs><defs><linearGradient id="grad1_5" x1="50%" y1="100%" x2="100%" y2="0%"><stop offset="10%" stop-color="#7c3e6b" stop-opacity="1"></stop><stop offset="90%" stop-color="#49335c" stop-opacity="1"></stop></linearGradient></defs><defs><linearGradient id="grad1_6" x1="50%" y1="100%" x2="100%" y2="0%"><stop offset="10%" stop-color="#1d2540" stop-opacity="1"></stop><stop offset="90%" stop-color="#49335c" stop-opacity="1"></stop></linearGradient></defs><defs><linearGradient id="grad1_7" x1="50%" y1="100%" x2="100%" y2="0%"><stop offset="10%" stop-color="#1d2540" stop-opacity="1"></stop><stop offset="90%" stop-color="#001220" stop-opacity="1"></stop></linearGradient></defs><defs><linearGradient id="grad2_0" x1="0%" y1="100%" x2="50%" y2="0%"><stop offset="10%" stop-color="#fbae3c" stop-opacity="1"></stop><stop offset="90%" stop-color="#fbae3c" stop-opacity="1"></stop></linearGradient></defs><defs><linearGradient id="grad2_1" x1="0%" y1="100%" x2="50%" y2="0%"><stop offset="10%" stop-color="#f48350" stop-opacity="1"></stop><stop offset="90%" stop-color="#fbae3c" stop-opacity="1"></stop></linearGradient></defs><defs><linearGradient id="grad2_2" x1="0%" y1="100%" x2="50%" y2="0%"><stop offset="10%" stop-color="#f48350" stop-opacity="1"></stop><stop offset="90%" stop-color="#d96162" stop-opacity="1"></stop></linearGradient></defs><defs><linearGradient id="grad2_3" x1="0%" y1="100%" x2="50%" y2="0%"><stop offset="10%" stop-color="#af4b6d" stop-opacity="1"></stop><stop offset="90%" stop-color="#d96162" stop-opacity="1"></stop></linearGradient></defs><defs><linearGradient id="grad2_4" x1="0%" y1="100%" x2="50%" y2="0%"><stop offset="10%" stop-color="#af4b6d" stop-opacity="1"></stop><stop offset="90%" stop-color="#7c3e6b" stop-opacity="1"></stop></linearGradient></defs><defs><linearGradient id="grad2_5" x1="0%" y1="100%" x2="50%" y2="0%"><stop offset="10%" stop-color="#49335c" stop-opacity="1"></stop><stop offset="90%" stop-color="#7c3e6b" stop-opacity="1"></stop></linearGradient></defs><defs><linearGradient id="grad2_6" x1="0%" y1="100%" x2="50%" y2="0%"><stop offset="10%" stop-color="#49335c" stop-opacity="1"></stop><stop offset="90%" stop-color="#1d2540" stop-opacity="1"></stop></linearGradient></defs><defs><linearGradient id="grad2_7" x1="0%" y1="100%" x2="50%" y2="0%"><stop offset="10%" stop-color="#001220" stop-opacity="1"></stop><stop offset="90%" stop-color="#1d2540" stop-opacity="1"></stop></linearGradient></defs><g transform="translate(900, 450)"><path d="M-450 0C-406.6 -62.4 -363.2 -124.9 -324.8 -187.5C-286.3 -250.1 -252.8 -312.9 -199.5 -345.5C-146.2 -378.2 -73.1 -380.6 0 -383L0 0Z" fill="#0c1c30"></path><path d="M-393.7 0C-355.8 -54.6 -317.8 -109.3 -284.2 -164.1C-250.5 -218.9 -221.2 -273.8 -174.6 -302.4C-127.9 -330.9 -64 -333 0 -335.1L0 0Z" fill="#312c4f"></path><path d="M-337.5 0C-305 -46.8 -272.4 -93.7 -243.6 -140.6C-214.7 -187.6 -189.6 -234.7 -149.6 -259.2C-109.6 -283.6 -54.8 -285.4 0 -287.2L0 0Z" fill="#623965"></path><path d="M-281.2 0C-254.1 -39 -227 -78 -203 -117.2C-178.9 -156.3 -158 -195.6 -124.7 -216C-91.4 -236.3 -45.7 -237.9 0 -239.4L0 0Z" fill="#96446e"></path><path d="M-225 0C-203.3 -31.2 -181.6 -62.4 -162.4 -93.8C-143.2 -125.1 -126.4 -156.5 -99.8 -172.8C-73.1 -189.1 -36.5 -190.3 0 -191.5L0 0Z" fill="#c55469"></path><path d="M-168.7 0C-152.5 -23.4 -136.2 -46.8 -121.8 -70.3C-107.4 -93.8 -94.8 -117.3 -74.8 -129.6C-54.8 -141.8 -27.4 -142.7 0 -143.6L0 0Z" fill="#e9705a"></path><path d="M-112.5 0C-101.7 -15.6 -90.8 -31.2 -81.2 -46.9C-71.6 -62.5 -63.2 -78.2 -49.9 -86.4C-36.5 -94.5 -18.3 -95.1 0 -95.7L0 0Z" fill="#fa9845"></path><path d="M-56.2 0C-50.8 -7.8 -45.4 -15.6 -40.6 -23.4C-35.8 -31.3 -31.6 -39.1 -24.9 -43.2C-18.3 -47.3 -9.1 -47.6 0 -47.9L0 0Z" fill="#fbae3c"></path></g><g transform="translate(0, 0)"><path d="M404 0C374.3 57.7 344.5 115.3 318.7 184C292.9 252.7 271 332.3 218.5 378.5C166 424.6 83 437.3 0 450L0 0Z" fill="#0c1c30"></path><path d="M353.5 0C327.5 50.5 301.5 100.9 278.9 161C256.3 221.1 237.1 290.8 191.2 331.1C145.3 371.5 72.6 382.6 0 393.8L0 0Z" fill="#312c4f"></path><path d="M303 0C280.7 43.3 258.4 86.5 239 138C219.7 189.5 203.2 249.2 163.9 283.8C124.5 318.5 62.3 328 0 337.5L0 0Z" fill="#623965"></path><path d="M252.5 0C233.9 36 215.3 72.1 199.2 115C183 157.9 169.4 207.7 136.6 236.5C103.8 265.4 51.9 273.3 0 281.3L0 0Z" fill="#96446e"></path><path d="M202 0C187.1 28.8 172.3 57.7 159.3 92C146.4 126.3 135.5 166.1 109.3 189.2C83 212.3 41.5 218.7 0 225L0 0Z" fill="#c55469"></path><path d="M151.5 0C140.3 21.6 129.2 43.3 119.5 69C109.8 94.7 101.6 124.6 81.9 141.9C62.3 159.2 31.1 164 0 168.8L0 0Z" fill="#e9705a"></path><path d="M101 0C93.6 14.4 86.1 28.8 79.7 46C73.2 63.2 67.7 83.1 54.6 94.6C41.5 106.2 20.8 109.3 0 112.5L0 0Z" fill="#fa9845"></path><path d="M50.5 0C46.8 7.2 43.1 14.4 39.8 23C36.6 31.6 33.9 41.5 27.3 47.3C20.8 53.1 10.4 54.7 0 56.3L0 0Z" fill="#fbae3c"></path></g></svg>